<mxfile host="app.diagrams.net" modified="2023-02-22T00:01:15.161Z" agent="5.0 (Windows NT 10.0; Win64; x64) AppleWebKit/537.36 (KHTML, like Gecko) Chrome/110.0.0.0 Safari/537.36" etag="KcqEKArEelGxuyoAW1m6" version="20.8.21" type="github">
  <diagram name="Seite-1" id="lF2rlmXKO6iBf-f4vKgf">
    <mxGraphModel dx="3217" dy="1473" grid="1" gridSize="10" guides="1" tooltips="1" connect="1" arrows="1" fold="1" page="1" pageScale="1" pageWidth="827" pageHeight="1169" math="0" shadow="0">
      <root>
        <mxCell id="0" />
        <mxCell id="1" parent="0" />
        <mxCell id="AzmMNP200xqUfIISIn_r-23" value="" style="group" vertex="1" connectable="0" parent="1">
          <mxGeometry x="-95" y="38" width="1266" height="571" as="geometry" />
        </mxCell>
        <mxCell id="AzmMNP200xqUfIISIn_r-7" value="&lt;b&gt;&lt;font style=&quot;font-size: 18px;&quot;&gt;ML&lt;/font&gt;&lt;/b&gt;" style="ellipse;whiteSpace=wrap;html=1;labelBackgroundColor=#FFFFFF;fillColor=#FFFFFF;" vertex="1" parent="AzmMNP200xqUfIISIn_r-23">
          <mxGeometry x="531" width="216" height="130" as="geometry" />
        </mxCell>
        <mxCell id="AzmMNP200xqUfIISIn_r-8" value="&lt;span style=&quot;font-size: 18px;&quot;&gt;&lt;b&gt;Input&lt;/b&gt;&lt;/span&gt;" style="ellipse;whiteSpace=wrap;html=1;labelBackgroundColor=#FFFFFF;fillColor=#FFFFFF;" vertex="1" parent="AzmMNP200xqUfIISIn_r-23">
          <mxGeometry x="335" y="206" width="216" height="130" as="geometry" />
        </mxCell>
        <mxCell id="AzmMNP200xqUfIISIn_r-9" value="&lt;b&gt;&lt;font style=&quot;font-size: 18px;&quot;&gt;Output&lt;/font&gt;&lt;/b&gt;" style="ellipse;whiteSpace=wrap;html=1;labelBackgroundColor=#FFFFFF;fillColor=#FFFFFF;" vertex="1" parent="AzmMNP200xqUfIISIn_r-23">
          <mxGeometry x="695" y="216" width="216" height="130" as="geometry" />
        </mxCell>
        <mxCell id="AzmMNP200xqUfIISIn_r-10" value="&lt;span style=&quot;font-size: 18px;&quot;&gt;&lt;b&gt;Supervide&lt;/b&gt;&lt;/span&gt;" style="ellipse;whiteSpace=wrap;html=1;labelBackgroundColor=#FFFFFF;fillColor=#FFFFFF;" vertex="1" parent="AzmMNP200xqUfIISIn_r-23">
          <mxGeometry y="441" width="216" height="130" as="geometry" />
        </mxCell>
        <mxCell id="AzmMNP200xqUfIISIn_r-11" value="&lt;span style=&quot;font-size: 18px;&quot;&gt;&lt;b&gt;Unsupervised&lt;/b&gt;&lt;/span&gt;" style="ellipse;whiteSpace=wrap;html=1;labelBackgroundColor=#FFFFFF;fillColor=#FFFFFF;" vertex="1" parent="AzmMNP200xqUfIISIn_r-23">
          <mxGeometry x="270" y="441" width="216" height="130" as="geometry" />
        </mxCell>
        <mxCell id="AzmMNP200xqUfIISIn_r-12" value="&lt;span style=&quot;font-size: 18px;&quot;&gt;&lt;b&gt;Reinforce&lt;/b&gt;&lt;/span&gt;" style="ellipse;whiteSpace=wrap;html=1;labelBackgroundColor=#FFFFFF;fillColor=#FFFFFF;" vertex="1" parent="AzmMNP200xqUfIISIn_r-23">
          <mxGeometry x="534" y="441" width="216" height="130" as="geometry" />
        </mxCell>
        <mxCell id="AzmMNP200xqUfIISIn_r-13" value="&lt;span style=&quot;font-size: 18px;&quot;&gt;&lt;b&gt;Regression&lt;/b&gt;&lt;/span&gt;" style="ellipse;whiteSpace=wrap;html=1;labelBackgroundColor=#FFFFFF;fillColor=#FFFFFF;" vertex="1" parent="AzmMNP200xqUfIISIn_r-23">
          <mxGeometry x="806" y="441" width="216" height="130" as="geometry" />
        </mxCell>
        <mxCell id="AzmMNP200xqUfIISIn_r-14" value="&lt;span style=&quot;font-size: 18px;&quot;&gt;&lt;b&gt;Classification&lt;/b&gt;&lt;/span&gt;" style="ellipse;whiteSpace=wrap;html=1;labelBackgroundColor=#FFFFFF;fillColor=#FFFFFF;" vertex="1" parent="AzmMNP200xqUfIISIn_r-23">
          <mxGeometry x="1050" y="441" width="216" height="130" as="geometry" />
        </mxCell>
        <mxCell id="AzmMNP200xqUfIISIn_r-16" value="" style="endArrow=classic;html=1;rounded=0;fontSize=18;" edge="1" parent="AzmMNP200xqUfIISIn_r-23" target="AzmMNP200xqUfIISIn_r-8">
          <mxGeometry width="50" height="50" relative="1" as="geometry">
            <mxPoint x="635.01" y="130" as="sourcePoint" />
            <mxPoint x="595.0020000000002" y="190.01" as="targetPoint" />
            <Array as="points" />
          </mxGeometry>
        </mxCell>
        <mxCell id="AzmMNP200xqUfIISIn_r-17" value="" style="endArrow=classic;html=1;rounded=0;fontSize=18;entryX=0;entryY=0;entryDx=0;entryDy=0;" edge="1" parent="AzmMNP200xqUfIISIn_r-23" target="AzmMNP200xqUfIISIn_r-9">
          <mxGeometry width="50" height="50" relative="1" as="geometry">
            <mxPoint x="635" y="132" as="sourcePoint" />
            <mxPoint x="521" y="231" as="targetPoint" />
            <Array as="points" />
          </mxGeometry>
        </mxCell>
        <mxCell id="AzmMNP200xqUfIISIn_r-18" value="" style="endArrow=classic;html=1;rounded=0;fontSize=18;entryX=0.718;entryY=0.008;entryDx=0;entryDy=0;entryPerimeter=0;exitX=0.459;exitY=1;exitDx=0;exitDy=0;exitPerimeter=0;" edge="1" parent="AzmMNP200xqUfIISIn_r-23" source="AzmMNP200xqUfIISIn_r-8" target="AzmMNP200xqUfIISIn_r-10">
          <mxGeometry width="50" height="50" relative="1" as="geometry">
            <mxPoint x="439.01" y="332" as="sourcePoint" />
            <mxPoint x="315" y="423" as="targetPoint" />
            <Array as="points" />
          </mxGeometry>
        </mxCell>
        <mxCell id="AzmMNP200xqUfIISIn_r-19" value="" style="endArrow=classic;html=1;rounded=0;fontSize=18;entryX=0.421;entryY=0.008;entryDx=0;entryDy=0;entryPerimeter=0;exitX=0.467;exitY=0.996;exitDx=0;exitDy=0;exitPerimeter=0;" edge="1" parent="AzmMNP200xqUfIISIn_r-23" source="AzmMNP200xqUfIISIn_r-8" target="AzmMNP200xqUfIISIn_r-12">
          <mxGeometry width="50" height="50" relative="1" as="geometry">
            <mxPoint x="439" y="334" as="sourcePoint" />
            <mxPoint x="531" y="437" as="targetPoint" />
            <Array as="points" />
          </mxGeometry>
        </mxCell>
        <mxCell id="AzmMNP200xqUfIISIn_r-20" value="" style="endArrow=classic;html=1;rounded=0;fontSize=18;entryX=0.565;entryY=-0.008;entryDx=0;entryDy=0;entryPerimeter=0;exitX=0.468;exitY=1;exitDx=0;exitDy=0;exitPerimeter=0;" edge="1" parent="AzmMNP200xqUfIISIn_r-23" source="AzmMNP200xqUfIISIn_r-8" target="AzmMNP200xqUfIISIn_r-11">
          <mxGeometry width="50" height="50" relative="1" as="geometry">
            <mxPoint x="435" y="332" as="sourcePoint" />
            <mxPoint x="635" y="452" as="targetPoint" />
            <Array as="points" />
          </mxGeometry>
        </mxCell>
        <mxCell id="AzmMNP200xqUfIISIn_r-21" value="" style="endArrow=classic;html=1;rounded=0;fontSize=18;" edge="1" parent="AzmMNP200xqUfIISIn_r-23" target="AzmMNP200xqUfIISIn_r-14">
          <mxGeometry width="50" height="50" relative="1" as="geometry">
            <mxPoint x="885" y="322" as="sourcePoint" />
            <mxPoint x="977" y="425" as="targetPoint" />
            <Array as="points" />
          </mxGeometry>
        </mxCell>
        <mxCell id="AzmMNP200xqUfIISIn_r-22" value="" style="endArrow=classic;html=1;rounded=0;fontSize=18;exitX=0.883;exitY=0.823;exitDx=0;exitDy=0;exitPerimeter=0;" edge="1" parent="AzmMNP200xqUfIISIn_r-23" source="AzmMNP200xqUfIISIn_r-9" target="AzmMNP200xqUfIISIn_r-13">
          <mxGeometry width="50" height="50" relative="1" as="geometry">
            <mxPoint x="855" y="336" as="sourcePoint" />
            <mxPoint x="1056" y="472" as="targetPoint" />
            <Array as="points" />
          </mxGeometry>
        </mxCell>
      </root>
    </mxGraphModel>
  </diagram>
</mxfile>
